<svg xmlns="http://www.w3.org/2000/svg" width="45" height="40" viewBox="0 0 45 40" fill="none">
                            <rect x="0.658203" width="43.9354" height="39.8164" rx="8.95183" fill="#323142" />
                            <mask id="path-2-inside-1_250_165" fill="white">
                                <path d="M29.6045 21.1269H23.2496V27.5713H20.7137V21.1269H14.3887V18.8296H20.7137V12.3555H23.2496V18.8296H29.6045V21.1269Z" />
                            </mask>
                            <path d="M29.6045 21.1269H23.2496V27.5713H20.7137V21.1269H14.3887V18.8296H20.7137V12.3555H23.2496V18.8296H29.6045V21.1269Z" fill="black" />
                            <path d="M29.6045 21.1269V25.2459H33.7234V21.1269H29.6045ZM23.2496 21.1269V17.008H19.1307V21.1269H23.2496ZM23.2496 27.5713V31.6902H27.3686V27.5713H23.2496ZM20.7137 27.5713H16.5947V31.6902H20.7137V27.5713ZM20.7137 21.1269H24.8326V17.008H20.7137V21.1269ZM14.3887 21.1269H10.2697V25.2459H14.3887V21.1269ZM14.3887 18.8296V14.7107H10.2697V18.8296H14.3887ZM20.7137 18.8296V22.9486H24.8326V18.8296H20.7137ZM20.7137 12.3555V8.23653H16.5947V12.3555H20.7137ZM23.2496 12.3555H27.3686V8.23653H23.2496V12.3555ZM23.2496 18.8296H19.1307V22.9486H23.2496V18.8296ZM29.6045 18.8296H33.7234V14.7107H29.6045V18.8296ZM29.6045 17.008H23.2496V25.2459H29.6045V17.008ZM19.1307 21.1269V27.5713H27.3686V21.1269H19.1307ZM23.2496 23.4523H20.7137V31.6902H23.2496V23.4523ZM24.8326 27.5713V21.1269H16.5947V27.5713H24.8326ZM20.7137 17.008H14.3887V25.2459H20.7137V17.008ZM18.5076 21.1269V18.8296H10.2697V21.1269H18.5076ZM14.3887 22.9486H20.7137V14.7107H14.3887V22.9486ZM24.8326 18.8296V12.3555H16.5947V18.8296H24.8326ZM20.7137 16.4744H23.2496V8.23653H20.7137V16.4744ZM19.1307 12.3555V18.8296H27.3686V12.3555H19.1307ZM23.2496 22.9486H29.6045V14.7107H23.2496V22.9486ZM25.4855 18.8296V21.1269H33.7234V18.8296H25.4855Z" fill="white" mask="url(#path-2-inside-1_250_165)" />
                        </svg>