<svg xmlns="http://www.w3.org/2000/svg" width="24" height="24" viewBox="0 0 24 24" fill="none">
    <path d="M15.1816 18.9653C16.7087 19.8012 18.0518 18.7881 17.7597 17.0152L17.2353 13.8318L19.4567 11.5774C20.6922 10.3235 20.1818 8.68063 18.472 8.42197L15.402 7.95752L14.0359 5.07554C13.2706 3.46119 11.6091 3.44383 10.8424 5.06121L9.46945 7.95752L6.39948 8.42197C4.69209 8.68027 4.17751 10.3218 5.41473 11.5774L7.63619 13.8318L7.11177 17.0152C6.82012 18.7856 8.16058 19.8024 9.68987 18.9653L12.4357 17.4624L15.1816 18.9653Z" fill="#6C5FBC" />
    <mask id="mask0_250_171" style="mask-type:luminance" maskUnits="userSpaceOnUse" x="4" y="3" width="17" height="17">
    <path d="M15.1816 18.9653C16.7087 19.8012 18.0518 18.7881 17.7597 17.0152L17.2353 13.8318L19.4567 11.5774C20.6922 10.3235 20.1818 8.68063 18.472 8.42197L15.402 7.95752L14.0359 5.07554C13.2706 3.46119 11.6091 3.44383 10.8424 5.06121L9.46945 7.95752L6.39948 8.42197C4.69209 8.68027 4.17751 10.3218 5.41473 11.5774L7.63619 13.8318L7.11177 17.0152C6.82012 18.7856 8.16058 19.8024 9.68987 18.9653L12.4357 17.4624L15.1816 18.9653Z" fill="white" />
    </mask>
    <g mask="url(#mask0_250_171)">
    </g>
</svg>