<svg xmlns="http://www.w3.org/2000/svg" width="60" height="60" viewBox="0 0 60 60" fill="none">
  <path d="M9.44502 9.1371C8.99242 10.0393 8.76982 11.1523 8.32462 13.3783L6.82982 20.8523C5.88335 25.5847 9.503 30 14.3291 30C18.2582 30 21.548 27.0227 21.939 23.1132L22.1115 21.3879C21.7038 26.0095 25.3465 30 29.9997 30C34.6845 30 38.3452 25.955 37.879 21.2934L38.0615 23.1132C38.4525 27.0227 41.7422 30 45.6715 30C50.4975 30 54.1172 25.5847 53.1707 20.8523L51.676 13.3783C51.2307 11.1524 51.008 10.0393 50.5555 9.1371C49.6017 7.23597 47.8857 5.8292 45.8345 5.26688C44.861 5 43.726 5 41.456 5H36.2497H18.5445C16.2745 5 15.1394 5 14.1659 5.26688C12.1147 5.8292 10.3987 7.23597 9.44502 9.1371Z" fill="#2C7700"/>
  <path d="M45.6712 33.7504C47.714 33.7504 49.612 33.2194 51.25 32.2977V35.0004C51.25 44.4284 51.25 49.1424 48.321 52.0714C45.9632 54.4292 42.449 54.8889 36.25 54.9787V46.2504C36.25 43.9139 36.25 42.7457 35.7475 41.8754C35.4185 41.3054 34.945 40.8319 34.375 40.5029C33.5047 40.0004 32.3365 40.0004 30 40.0004C27.6635 40.0004 26.4952 40.0004 25.625 40.5029C25.055 40.8319 24.5815 41.3054 24.2524 41.8754C23.75 42.7457 23.75 43.9139 23.75 46.2504V54.9787C17.5511 54.8889 14.0366 54.4292 11.6789 52.0714C8.75 49.1424 8.75 44.4284 8.75 35.0004V32.2977C10.3881 33.2194 12.286 33.7504 14.3289 33.7504C17.3216 33.7504 20.0654 32.5914 22.1109 30.6802C24.1792 32.5807 26.9412 33.7504 29.9995 33.7504C33.058 33.7504 35.8202 32.5804 37.8887 30.6797C39.9342 32.5912 42.6782 33.7504 45.6712 33.7504Z" fill="#2C7700"/>
</svg>