<svg xmlns="http://www.w3.org/2000/svg" width="60" height="60" viewBox="0 0 60 60" fill="none">
  <g clip-path="url(#clip0_352_1904)">
    <path d="M49.1026 51.4825H34.0713V21.4199H45.0943C47.3081 21.4199 49.1027 23.2145 49.1027 25.4283L49.1026 51.4825Z" fill="#E5563C"/>
    <path d="M59.1235 51.4823H34.0713V37.4531H55.1151C57.3289 37.4531 59.1235 39.2477 59.1235 41.4615V51.4823Z" fill="#E5563C"/>
    <path d="M34.0709 37.4531H1.00195V51.4823H34.0709V37.4531Z" fill="#E5563C"/>
    <path d="M4.00816 37.4531H1.00195V51.4823H4.00816V37.4531Z" fill="#CF442B"/>
    <path d="M49.1024 55.4909C52.423 55.4909 55.1149 52.799 55.1149 49.4784C55.1149 46.1577 52.423 43.4658 49.1024 43.4658C45.7817 43.4658 43.0898 46.1577 43.0898 49.4784C43.0898 52.799 45.7817 55.4909 49.1024 55.4909Z" fill="#74757B"/>
    <path d="M49.1019 52.4841C50.7622 52.4841 52.1081 51.1382 52.1081 49.4779C52.1081 47.8176 50.7622 46.4717 49.1019 46.4717C47.4416 46.4717 46.0957 47.8176 46.0957 49.4779C46.0957 51.1382 47.4416 52.4841 49.1019 52.4841Z" fill="#D7D8D9"/>
    <path d="M11.0233 55.4909C14.3439 55.4909 17.0358 52.799 17.0358 49.4784C17.0358 46.1577 14.3439 43.4658 11.0233 43.4658C7.70265 43.4658 5.01074 46.1577 5.01074 49.4784C5.01074 52.799 7.70265 55.4909 11.0233 55.4909Z" fill="#74757B"/>
    <path d="M11.0228 52.4841C12.6831 52.4841 14.029 51.1382 14.029 49.4779C14.029 47.8176 12.6831 46.4717 11.0228 46.4717C9.36253 46.4717 8.0166 47.8176 8.0166 49.4779C8.0166 51.1382 9.36253 52.4841 11.0228 52.4841Z" fill="#D7D8D9"/>
    <path d="M11.0228 52.4841C12.6831 52.4841 14.029 51.1382 14.029 49.4779C14.029 47.8176 12.6831 46.4717 11.0228 46.4717C9.36253 46.4717 8.0166 47.8176 8.0166 49.4779C8.0166 51.1382 9.36253 52.4841 11.0228 52.4841Z" fill="#D7D8D9"/>
    <path d="M46.0959 34.4466H37.0771V24.4258H44.0918C45.1987 24.4258 46.0959 25.323 46.0959 26.4299V34.4466Z" fill="#D7D8D9"/>
    <path d="M45.0281 24.6582L37.0771 32.6091V34.4463H38.7473L46.096 27.0976V26.4296C46.0959 25.6612 45.6629 24.9945 45.0281 24.6582Z" fill="#9B9DA1"/>
    <path d="M37.0771 24.4258V31.023L43.6743 24.4258H37.0771Z" fill="#9B9DA1"/>
    <path d="M46.0959 34.4465V30.8975L42.5469 34.4465H46.0959Z" fill="#9B9DA1"/>
    <path d="M34.0709 4.38379H1.00195V37.4527H34.0709V4.38379Z" fill="#FDDD85"/>
    <path d="M4.00816 4.38379H1.00195V37.4527H4.00816V4.38379Z" fill="#FDD042"/>
    <path d="M23.0482 17.4109L18.0378 14.4047L13.0273 17.4109V4.38379H23.0482V17.4109Z" fill="#F2C127"/>
    <path d="M16.0336 4.38379H13.0273V17.4109L16.0336 15.6072V4.38379Z" fill="#E1A527"/>
    <path d="M29.0605 21.4199H7.01465V25.4283H29.0605V21.4199Z" fill="#EBEBEC"/>
    <path d="M10.0209 21.4199H7.01465V25.4283H10.0209V21.4199Z" fill="#D7D8D9"/>
    <path d="M55.1148 36.5757H49.9791V25.4275C49.9791 22.6992 47.8221 20.5423 45.0939 20.5423H34.9478V14.4045C34.9478 13.8857 34.5273 13.465 34.0083 13.465C33.4893 13.465 33.0688 13.8855 33.0688 14.4045V36.5756H1.87887V5.3857H12.025V17.4108C12.025 18.1268 12.8638 18.5854 13.4791 18.2163L18.0218 15.5L22.5254 18.2163C23.1412 18.5857 23.9248 18.126 23.9248 17.4108V5.3857H33.0688V10.3962C33.0688 10.915 33.4893 11.3357 34.0083 11.3357C34.5273 11.3357 34.9478 10.9151 34.9478 10.3962V4.38363C34.9478 3.86484 34.5899 3.50684 34.071 3.50684H1.00207C0.483281 3.50684 0 3.86484 0 4.38363V51.4818C0 52.0005 0.483281 52.4838 1.00207 52.4838H4.72699C5.83746 54.7385 8.24145 56.4922 11.023 56.4922C13.8046 56.4922 16.2086 54.7385 17.319 52.4838H42.8063C43.9167 54.7385 46.3207 56.4922 49.1023 56.4922C51.8838 56.4922 54.2878 54.7385 55.3983 52.4838H59.1233C59.6422 52.4838 60.0001 52.0005 60.0001 51.4818V41.4609C60 38.7327 57.843 36.5757 55.1148 36.5757ZM22.0459 5.3857V15.7514L18.4896 13.5988C18.195 13.4221 17.8018 13.4221 17.5072 13.5988L13.9039 15.7514V5.3857H22.0459ZM45.094 22.4212C46.7863 22.4212 48.1002 23.7354 48.1002 25.4275V36.5757H34.9478V22.4212H45.094ZM11.023 54.5507C8.22563 54.5507 5.94996 52.2749 5.94996 49.4776C5.94996 46.6804 8.22574 44.4046 11.023 44.4046C13.8203 44.4046 16.0961 46.6804 16.0961 49.4776C16.0961 52.2749 13.8203 54.5507 11.023 54.5507ZM11.023 42.5256C7.18969 42.5256 4.07098 45.6755 4.07098 49.5089C4.07098 49.8709 4.09887 50.2291 4.15254 50.605H1.87887V38.4546H33.0688V50.605H17.8934C17.9469 50.2291 17.9749 49.8709 17.9749 49.5089C17.9749 45.6756 14.8563 42.5256 11.023 42.5256ZM49.1023 54.5507C46.3049 54.5507 44.0292 52.2749 44.0292 49.4776C44.0292 46.6804 46.305 44.4046 49.1023 44.4046C51.8997 44.4046 54.1753 46.6804 54.1753 49.4776C54.1753 52.2749 51.8997 54.5507 49.1023 54.5507ZM58.1211 50.605H55.9727C56.0264 50.2291 56.0543 49.8709 56.0543 49.5089C56.0543 45.6756 52.9357 42.5413 49.1023 42.5413C45.2688 42.5413 42.1502 45.6833 42.1502 49.5169C42.1502 49.8789 42.1781 50.2294 42.2318 50.6052H34.9478V38.4547H55.1148C56.8071 38.4547 58.121 39.7689 58.121 41.4609V50.605H58.1211Z" fill="black"/>
    <path d="M49.102 45.5322C46.9263 45.5322 45.1562 47.3023 45.1562 49.4779C45.1562 51.6535 46.9264 53.4236 49.102 53.4236C51.2777 53.4236 53.0477 51.6535 53.0477 49.4779C53.0477 47.3023 51.2777 45.5322 49.102 45.5322ZM49.102 51.5448C47.9623 51.5448 47.0351 50.6176 47.0351 49.4779C47.0351 48.3383 47.9623 47.4111 49.102 47.4111C50.2416 47.4111 51.1688 48.3383 51.1688 49.4779C51.1688 50.6176 50.2416 51.5448 49.102 51.5448Z" fill="black"/>
    <path d="M11.0229 45.5322C8.84715 45.5322 7.07715 47.3023 7.07715 49.4779C7.07715 51.6535 8.84727 53.4236 11.0229 53.4236C13.1984 53.4236 14.9686 51.6535 14.9686 49.4779C14.9686 47.3023 13.1984 45.5322 11.0229 45.5322ZM11.0229 51.5448C9.8832 51.5448 8.95602 50.6176 8.95602 49.4779C8.95602 48.3383 9.8832 47.4111 11.0229 47.4111C12.1625 47.4111 13.0897 48.3383 13.0897 49.4779C13.0897 50.6176 12.1624 51.5448 11.0229 51.5448Z" fill="black"/>
    <path d="M39.0813 39.582H37.0772C36.5583 39.582 36.1377 40.0026 36.1377 40.5215C36.1377 41.0403 36.5582 41.461 37.0772 41.461H39.0813C39.6002 41.461 40.0208 41.0404 40.0208 40.5215C40.0207 40.0027 39.6002 39.582 39.0813 39.582Z" fill="black"/>
    <path d="M37.0774 35.4486H46.0961C46.615 35.4486 46.9729 34.9654 46.9729 34.4466V26.4299C46.9729 24.8067 45.715 23.5488 44.0919 23.5488H37.0773C36.5584 23.5488 36.0752 23.9068 36.0752 24.4256V34.4464C36.0753 34.9654 36.5585 35.4486 37.0774 35.4486ZM37.9543 25.4277H44.0921C44.6792 25.4277 45.0942 25.8427 45.0942 26.4298V33.5697H37.9543V25.4277Z" fill="black"/>
    <path d="M4.00879 31.4405V34.4467C4.00879 34.9655 4.42937 35.3862 4.94828 35.3862C5.46719 35.3862 5.88777 34.9656 5.88777 34.4467V31.4405C5.88777 30.9217 5.46719 30.501 4.94828 30.501C4.42937 30.501 4.00879 30.9217 4.00879 31.4405Z" fill="black"/>
    <path d="M7.01465 31.4405V34.4467C7.01465 34.9655 7.43523 35.3862 7.95414 35.3862C8.47305 35.3862 8.89363 34.9656 8.89363 34.4467V31.4405C8.89363 30.9217 8.47305 30.501 7.95414 30.501C7.43523 30.501 7.01465 30.9217 7.01465 31.4405Z" fill="black"/>
    <path d="M26.0547 31.4405V34.4467C26.0547 34.9655 26.4753 35.3862 26.9942 35.3862C27.5131 35.3862 27.9337 34.9656 27.9337 34.4467V31.4405C27.9337 30.9217 27.5131 30.501 26.9942 30.501C26.4753 30.501 26.0547 30.9217 26.0547 31.4405Z" fill="black"/>
    <path d="M30 35.3862C30.5189 35.3862 30.9395 34.9656 30.9395 34.4467V31.4405C30.9395 30.9217 30.5191 30.501 30 30.501C29.4812 30.501 29.0605 30.9216 29.0605 31.4405V34.4467C29.0605 34.9656 29.4812 35.3862 30 35.3862Z" fill="black"/>
    <path d="M12.0254 31.4405V34.4467C12.0254 34.9655 12.446 35.3862 12.9649 35.3862C13.4837 35.3862 13.9044 34.9656 13.9044 34.4467V31.4405C13.9044 30.9217 13.4838 30.501 12.9649 30.501C12.446 30.5011 12.0254 30.9217 12.0254 31.4405Z" fill="black"/>
    <path d="M15.0312 31.4405V34.4467C15.0312 34.9655 15.4518 35.3862 15.9707 35.3862C16.4895 35.3862 16.9102 34.9656 16.9102 34.4467V31.4405C16.9102 30.9217 16.4896 30.501 15.9707 30.501C15.452 30.5011 15.0312 30.9217 15.0312 31.4405Z" fill="black"/>
    <path d="M18.0381 31.4405V34.4467C18.0381 34.9655 18.4587 35.3862 18.9776 35.3862C19.4965 35.3862 19.9171 34.9656 19.9171 34.4467V31.4405C19.9171 30.9217 19.4965 30.501 18.9776 30.501C18.4587 30.501 18.0381 30.9217 18.0381 31.4405Z" fill="black"/>
    <path d="M21.0439 31.4405V34.4467C21.0439 34.9655 21.4645 35.3862 21.9834 35.3862C22.5023 35.3862 22.9229 34.9656 22.9229 34.4467V31.4405C22.9229 30.9217 22.5023 30.501 21.9834 30.501C21.4645 30.501 21.0439 30.9217 21.0439 31.4405Z" fill="black"/>
    <path d="M29.9376 21.4825C29.9376 20.9637 29.517 20.543 28.9981 20.543H6.95219C6.4334 20.543 6.0127 20.9636 6.0127 21.4825V25.4909C6.0127 26.0096 6.43328 26.4304 6.95219 26.4304H28.9981C29.5169 26.4304 29.9376 26.0098 29.9376 25.4909V21.4825ZM28.0586 24.5514H7.89156V22.422H28.0586V24.5514Z" fill="black"/>
  </g>
  <defs>
    <clipPath id="clip0_352_1904">
      <rect width="60" height="60" fill="white"/>
    </clipPath>
  </defs>
</svg>