<svg width="169" height="43" viewBox="0 0 169 43" fill="none" xmlns="http://www.w3.org/2000/svg">
<rect x="3.67432" y="4.97852" width="42.2674" height="37.3367" rx="6.96951" fill="#6C5FBC"/>
<rect x="1.0075" y="1.0075" width="40.2524" height="35.3217" rx="5.96201" fill="#DBD9EE" stroke="#6C5FBC" stroke-width="2.01499"/>
<path d="M32.624 12.0518L9.72243 11.9505" stroke="#6C5FBC" stroke-width="2.08432" stroke-linecap="round" stroke-linejoin="round"/>
<path d="M32.6096 16.6368L27.5162 16.6142C25.4095 16.6049 23.7056 14.5428 23.7133 12.0119C23.7211 9.48095 25.4376 7.43398 27.5443 7.4433L32.6377 7.46582" stroke="#6C5FBC" stroke-width="2.08432" stroke-linecap="round" stroke-linejoin="round"/>
<path d="M17.3616 26.7221L10.7072 26.648C10.1619 26.6456 9.70507 26.1076 9.69468 25.4525L9.6504 23.7254C9.64011 23.0405 10.1004 22.462 10.6704 22.4645L17.2505 22.5383L17.3616 26.7221Z" stroke="#6C5FBC" stroke-width="2.08432" stroke-linecap="round" stroke-linejoin="round"/>
<path d="M27.8134 29.2108L18.4076 29.0948C17.8624 29.0924 17.4055 28.5544 17.3951 27.8993L17.2752 22.5242L32.555 22.7108L32.5653 23.3957C32.6421 26.6417 30.5025 29.2525 27.8134 29.2108Z" stroke="#6C5FBC" stroke-width="2.08432" stroke-linecap="round" stroke-linejoin="round"/>
<path d="M60.4989 18.4375C60.8378 17.774 61.3177 17.2588 61.9389 16.8917C62.5742 16.5247 63.3436 16.3411 64.2471 16.3411V18.3317H63.7388C61.5789 18.3317 60.4989 19.5034 60.4989 21.8468V28.1572H58.5719V16.5529H60.4989V18.4375ZM77.0594 21.9104C77.0594 22.2774 77.0382 22.6656 76.9959 23.075H67.7209C67.7915 24.2185 68.1797 25.115 68.8855 25.7644C69.6055 26.3996 70.4737 26.7173 71.4902 26.7173C72.3231 26.7173 73.0148 26.5267 73.5654 26.1455C74.1301 25.7502 74.5254 25.2279 74.7512 24.5785H76.8265C76.5159 25.6938 75.8947 26.6043 74.963 27.3102C74.0313 28.0019 72.8737 28.3478 71.4902 28.3478C70.389 28.3478 69.4008 28.1008 68.5256 27.6067C67.6644 27.1126 66.9868 26.4138 66.4927 25.5103C65.9986 24.5926 65.7515 23.5338 65.7515 22.3339C65.7515 21.1339 65.9915 20.0822 66.4715 19.1787C66.9515 18.2752 67.6221 17.5834 68.4832 17.1035C69.3585 16.6094 70.3608 16.3623 71.4902 16.3623C72.5913 16.3623 73.5654 16.6023 74.4124 17.0823C75.2595 17.5623 75.9088 18.2258 76.3606 19.0728C76.8265 19.9057 77.0594 20.8516 77.0594 21.9104ZM75.0689 21.508C75.0689 20.7739 74.9065 20.1457 74.5818 19.6234C74.2571 19.0869 73.8124 18.6846 73.2478 18.4164C72.6972 18.134 72.0831 17.9928 71.4055 17.9928C70.4314 17.9928 69.5985 18.3034 68.9067 18.9246C68.2291 19.5457 67.8409 20.4069 67.7421 21.508H75.0689ZM83.7111 28.3478C82.8217 28.3478 82.0241 28.1996 81.3182 27.9031C80.6124 27.5925 80.0547 27.169 79.6453 26.6326C79.2359 26.082 79.0101 25.4538 78.9677 24.7479H80.9582C81.0147 25.3267 81.2829 25.7997 81.7629 26.1667C82.257 26.5337 82.8993 26.7173 83.6899 26.7173C84.424 26.7173 85.0028 26.5549 85.4263 26.2302C85.8498 25.9055 86.0616 25.4961 86.0616 25.002C86.0616 24.4938 85.8357 24.1197 85.384 23.8797C84.9322 23.6256 84.2334 23.3786 83.2876 23.1386C82.4264 22.9127 81.7206 22.6868 81.17 22.4609C80.6335 22.2209 80.1677 21.8751 79.7724 21.4233C79.3912 20.9575 79.2006 20.3504 79.2006 19.6022C79.2006 19.0093 79.3771 18.4658 79.73 17.9717C80.083 17.4776 80.5841 17.0893 81.2335 16.807C81.8829 16.5105 82.6241 16.3623 83.457 16.3623C84.7416 16.3623 85.7792 16.687 86.5698 17.3364C87.3604 17.9858 87.7839 18.8752 87.8404 20.0045H85.9134C85.871 19.3975 85.624 18.9105 85.1722 18.5434C84.7346 18.1764 84.1417 17.9928 83.3934 17.9928C82.7017 17.9928 82.1511 18.1411 81.7417 18.4375C81.3323 18.734 81.1276 19.1222 81.1276 19.6022C81.1276 19.9834 81.2476 20.301 81.4876 20.5551C81.7417 20.7951 82.0523 20.9928 82.4194 21.148C82.8005 21.2892 83.3229 21.4516 83.9864 21.6351C84.8193 21.861 85.4969 22.0868 86.0192 22.3127C86.5416 22.5245 86.9863 22.8492 87.3533 23.2868C87.7345 23.7244 87.9321 24.2962 87.9462 25.002C87.9462 25.6373 87.7698 26.2091 87.4168 26.7173C87.0639 27.2255 86.5628 27.6278 85.9134 27.9243C85.2781 28.2066 84.544 28.3478 83.7111 28.3478ZM93.017 18.1411V24.9809C93.017 25.5455 93.137 25.9479 93.377 26.1879C93.617 26.4138 94.0334 26.5267 94.6264 26.5267H96.0451V28.1572H94.3087C93.2358 28.1572 92.4311 27.9102 91.8947 27.4161C91.3582 26.922 91.09 26.1102 91.09 24.9809V18.1411H89.5865V16.5529H91.09V13.6306H93.017V16.5529H96.0451V18.1411H93.017ZM97.66 22.3127C97.66 21.1269 97.9 20.0893 98.3799 19.1999C98.8599 18.2964 99.5164 17.5976 100.349 17.1035C101.196 16.6094 102.135 16.3623 103.166 16.3623C104.182 16.3623 105.064 16.5811 105.813 17.0188C106.561 17.4564 107.118 18.007 107.486 18.6705V16.5529H109.434V28.1572H107.486V25.9973C107.104 26.6749 106.533 27.2396 105.77 27.6914C105.022 28.129 104.147 28.3478 103.144 28.3478C102.114 28.3478 101.182 28.0937 100.349 27.5855C99.5164 27.0773 98.8599 26.3643 98.3799 25.4467C97.9 24.5291 97.66 23.4844 97.66 22.3127ZM107.486 22.3339C107.486 21.4586 107.309 20.6963 106.956 20.0469C106.603 19.3975 106.123 18.9034 105.516 18.5646C104.923 18.2117 104.267 18.0352 103.547 18.0352C102.827 18.0352 102.17 18.2046 101.577 18.5434C100.985 18.8822 100.512 19.3763 100.159 20.0257C99.8058 20.6751 99.6293 21.4374 99.6293 22.3127C99.6293 23.2021 99.8058 23.9785 100.159 24.642C100.512 25.2914 100.985 25.7926 101.577 26.1455C102.17 26.4843 102.827 26.6537 103.547 26.6537C104.267 26.6537 104.923 26.4843 105.516 26.1455C106.123 25.7926 106.603 25.2914 106.956 24.642C107.309 23.9785 107.486 23.2092 107.486 22.3339ZM122.982 16.5529V28.1572H121.055V26.442C120.688 27.0349 120.172 27.5008 119.509 27.8396C118.859 28.1643 118.139 28.3266 117.349 28.3266C116.445 28.3266 115.634 28.1431 114.914 27.7761C114.194 27.3949 113.622 26.8302 113.198 26.082C112.789 25.3338 112.584 24.4232 112.584 23.3503V16.5529H114.49V23.0962C114.49 24.2397 114.779 25.122 115.358 25.7432C115.937 26.3502 116.728 26.6537 117.73 26.6537C118.761 26.6537 119.572 26.3361 120.165 25.7008C120.758 25.0656 121.055 24.1409 121.055 22.9268V16.5529H122.982ZM128.162 18.4375C128.501 17.774 128.981 17.2588 129.602 16.8917C130.237 16.5247 131.007 16.3411 131.91 16.3411V18.3317H131.402C129.242 18.3317 128.162 19.5034 128.162 21.8468V28.1572H126.235V16.5529H128.162V18.4375ZM133.415 22.3127C133.415 21.1269 133.655 20.0893 134.135 19.1999C134.615 18.2964 135.271 17.5976 136.104 17.1035C136.951 16.6094 137.89 16.3623 138.92 16.3623C139.937 16.3623 140.819 16.5811 141.567 17.0188C142.316 17.4564 142.873 18.007 143.24 18.6705V16.5529H145.189V28.1572H143.24V25.9973C142.859 26.6749 142.287 27.2396 141.525 27.6914C140.777 28.129 139.902 28.3478 138.899 28.3478C137.869 28.3478 136.937 28.0937 136.104 27.5855C135.271 27.0773 134.615 26.3643 134.135 25.4467C133.655 24.5291 133.415 23.4844 133.415 22.3127ZM143.24 22.3339C143.24 21.4586 143.064 20.6963 142.711 20.0469C142.358 19.3975 141.878 18.9034 141.271 18.5646C140.678 18.2117 140.022 18.0352 139.302 18.0352C138.582 18.0352 137.925 18.2046 137.332 18.5434C136.739 18.8822 136.266 19.3763 135.914 20.0257C135.561 20.6751 135.384 21.4374 135.384 22.3127C135.384 23.2021 135.561 23.9785 135.914 24.642C136.266 25.2914 136.739 25.7926 137.332 26.1455C137.925 26.4843 138.582 26.6537 139.302 26.6537C140.022 26.6537 140.678 26.4843 141.271 26.1455C141.878 25.7926 142.358 25.2914 142.711 24.642C143.064 23.9785 143.24 23.2092 143.24 22.3339ZM154.099 16.3411C155.511 16.3411 156.654 16.7717 157.529 17.6329C158.405 18.4799 158.842 19.7081 158.842 21.3174V28.1572H156.936V21.5927C156.936 20.4351 156.647 19.5528 156.068 18.9458C155.489 18.3246 154.699 18.014 153.697 18.014C152.68 18.014 151.868 18.3317 151.261 18.9669C150.668 19.6022 150.372 20.5269 150.372 21.741V28.1572H148.445V16.5529H150.372V18.2046C150.753 17.6117 151.268 17.1529 151.918 16.8282C152.581 16.5035 153.308 16.3411 154.099 16.3411ZM164.341 18.1411V24.9809C164.341 25.5455 164.461 25.9479 164.701 26.1879C164.941 26.4138 165.357 26.5267 165.95 26.5267H167.369V28.1572H165.632C164.559 28.1572 163.755 27.9102 163.218 27.4161C162.682 26.922 162.414 26.1102 162.414 24.9809V18.1411H160.91V16.5529H162.414V13.6306H164.341V16.5529H167.369V18.1411H164.341Z" fill="#6C5FBC"/>
</svg>
