<svg width="30" height="31" viewBox="0 0 30 31" fill="none" xmlns="http://www.w3.org/2000/svg">
<path d="M4.94531 7.0625H4.69922C3.66504 7.0625 2.82422 7.90332 2.82422 8.9375V10.5869C2.85059 10.5225 2.87695 10.4551 2.90625 10.3906C3.41895 9.17773 4.10449 8.06445 4.94531 7.0625ZM2.82715 20.4131V22.0625C2.82715 23.0967 3.66797 23.9375 4.70215 23.9375H4.94824C4.10449 22.9355 3.42188 21.8193 2.90918 20.6064C2.87988 20.5449 2.85352 20.4775 2.82715 20.4131Z" fill="#FFEA00"/>
<path d="M25.2979 7.0625H7.56738C5.22949 9.125 3.75 12.1426 3.75 15.5C3.75 18.8574 5.22949 21.875 7.56738 23.9375H25.2949C26.3291 23.9375 27.1699 23.0967 27.1699 22.0625V8.9375C27.1729 7.90039 26.335 7.0625 25.2979 7.0625Z" fill="#536DFE"/>
<path d="M3.66504 8.9873L15 20.2344L26.209 8.94043L15 16.4346L3.66504 8.9873ZM21.0322 24.998C20.5957 25.2764 20.4668 25.8564 20.7451 26.293C20.9238 26.5742 21.2256 26.7266 21.5361 26.7266C21.709 26.7266 21.8818 26.6797 22.04 26.5801C23.1738 25.8594 24.1904 24.9629 25.0518 23.9375H22.4443C22.0049 24.3242 21.5332 24.6787 21.0322 24.998ZM27.1729 10.5811V20.4102C27.7969 18.8574 28.125 17.1875 28.125 15.5C28.125 13.7891 27.7998 12.1279 27.1729 10.5811Z" fill="#FFEA00"/>
<path d="M22.6846 4.85938C21.5713 4.05371 20.3438 3.42969 19.043 3.01074C17.7393 2.58887 16.3799 2.375 15 2.375C13.2275 2.375 11.5107 2.7207 9.89062 3.40625C8.32617 4.06836 6.92285 5.01465 5.71875 6.21875C5.44922 6.48828 5.19141 6.76953 4.94531 7.05957C4.10156 8.06152 3.41895 9.17773 2.90625 10.3906C2.87988 10.4551 2.85059 10.5195 2.82422 10.5869C2.19434 12.1484 1.875 13.8008 1.875 15.5C1.875 17.1992 2.19434 18.8516 2.82715 20.4131C2.85352 20.4775 2.87988 20.5449 2.90918 20.6094C3.42188 21.8223 4.10449 22.9385 4.94824 23.9404C5.19141 24.2305 5.44922 24.5117 5.72168 24.7812C6.92578 25.9854 8.3291 26.9316 9.89355 27.5938C11.5107 28.2793 13.2275 28.625 15 28.625C15.6768 28.625 16.3564 28.5723 17.0215 28.4697C17.5342 28.3906 17.8828 27.9131 17.8037 27.4004C17.7246 26.8877 17.2441 26.5391 16.7344 26.6182C16.1631 26.7061 15.5801 26.75 15 26.75C12.1553 26.75 9.55078 25.6865 7.56738 23.9375C5.22949 21.875 3.75 18.8574 3.75 15.5C3.75 12.1426 5.22949 9.125 7.56738 7.0625C9.55078 5.31348 12.1523 4.25 15 4.25C16.1836 4.25 17.3496 4.43164 18.4658 4.79492C19.9746 5.28125 21.3193 6.06348 22.4531 7.0625H25.0518C24.3574 6.2334 23.5635 5.49512 22.6846 4.85938Z" fill="#FFEA00"/>
<path d="M2.82715 8.9375V10.5869C2.85352 10.5225 2.87988 10.4551 2.90918 10.3906C3.42188 9.17773 4.10449 8.06152 4.94824 7.05957H4.70215C3.66504 7.0625 2.82715 7.90039 2.82715 8.9375ZM4.70215 23.9375H4.94824C4.10449 22.9355 3.42188 21.8193 2.90918 20.6064C2.88281 20.542 2.85352 20.4775 2.82715 20.4102V22.0625C2.82715 23.0996 3.66504 23.9375 4.70215 23.9375ZM5.19434 9.99219L15 16.4346L20.3584 12.8516C19.9131 10.6777 18.9287 8.69727 17.5518 7.05957H7.56738C6.62109 7.89453 5.81836 8.88477 5.19434 9.99219Z" fill="#8C9EFF"/>
<path d="M20.5957 14.5977L15 20.2344L5.0127 10.3262C4.20703 11.876 3.75 13.6338 3.75 15.5C3.75 18.8574 5.22949 21.875 7.56738 23.9375H17.5518C19.4707 21.6582 20.625 18.7139 20.625 15.5C20.625 15.1982 20.6133 14.8965 20.5957 14.5977Z" fill="#8C9EFF"/>
<path d="M5.19434 9.99219C5.13281 10.1035 5.07129 10.2148 5.0127 10.3262L15 20.2344L20.5957 14.5977C20.5547 14.0029 20.4756 13.4199 20.3584 12.8516L15 16.4346L5.19434 9.99219Z" fill="#FFFF00"/>
<path d="M3.75 15.5C3.75 13.6338 4.20703 11.876 5.0127 10.3262C5.07129 10.2148 5.12988 10.1035 5.19434 9.99219C5.81836 8.8877 6.62402 7.89453 7.57031 7.0625C9.38965 5.45703 11.7305 4.43164 14.3027 4.27344C13.3481 3.69388 12.3232 3.23901 11.2529 2.91992C10.793 3.05762 10.3389 3.21875 9.89355 3.40918C8.3291 4.07129 6.92578 5.01758 5.72168 6.22168C5.45215 6.49121 5.19434 6.77246 4.94824 7.0625C4.10449 8.06445 3.42188 9.18066 2.90918 10.3936C2.88281 10.458 2.85352 10.5225 2.82715 10.5898C2.19434 12.1484 1.875 13.8008 1.875 15.5C1.875 17.1992 2.19434 18.8516 2.82715 20.4131C2.85352 20.4775 2.87988 20.5449 2.90918 20.6094C3.42188 21.8223 4.10449 22.9385 4.94824 23.9404C5.19141 24.2305 5.44922 24.5117 5.72168 24.7812C6.92578 25.9854 8.3291 26.9316 9.89355 27.5938C10.3389 27.7812 10.793 27.9453 11.2529 28.083C12.334 27.7607 13.3594 27.3037 14.3027 26.7295C11.7305 26.5713 9.38965 25.5459 7.57031 23.9404C5.22949 21.875 3.75 18.8574 3.75 15.5Z" fill="#FFFF00"/>
</svg>
