<svg width="30" height="31" viewBox="0 0 30 31" fill="none" xmlns="http://www.w3.org/2000/svg">
<path d="M26.25 24.875H3.75V14.875L15 4.25L26.25 14.875V24.875Z" fill="#E8EAF6"/>
<path d="M24.375 13.625L21.25 10.5V6.125H24.375V13.625ZM3.75 24.875H26.25V28H3.75V24.875Z" fill="#C5CAE9"/>
<path d="M15 3.1875L2.5 14.8125L3.75 16.1875L15 5.75L26.25 16.1875L27.5 14.8125L15 3.1875Z" fill="#B71C1C"/>
<path d="M11.25 18H18.75V28H11.25V18Z" fill="#D84315"/>
<path d="M13.125 11.125H16.875V14.875H13.125V11.125Z" fill="#01579B"/>
<path d="M17.1875 22.6875C17 22.6875 16.875 22.8125 16.875 23V24.25C16.875 24.4375 17 24.5625 17.1875 24.5625C17.375 24.5625 17.5 24.4375 17.5 24.25V23C17.5 22.8125 17.375 22.6875 17.1875 22.6875Z" fill="#FF8A65"/>
</svg>
