<svg width="30" height="31" viewBox="0 0 30 31" fill="none" xmlns="http://www.w3.org/2000/svg">
<path d="M22.5 28.625H7.5C6.46582 28.625 5.625 27.7842 5.625 26.75V4.25C5.625 3.21582 6.46582 2.375 7.5 2.375H22.5C23.5342 2.375 24.375 3.21582 24.375 4.25V26.75C24.375 27.7842 23.5342 28.625 22.5 28.625Z" fill="#3D5AFE"/>
<path d="M7.5 4.25H22.5V26.75H7.5V4.25Z" fill="#FFEA00"/>
<path d="M19.6904 24.8691H10.3154C9.79688 24.8691 9.37793 24.4502 9.37793 23.9316C9.37793 23.4131 9.79688 22.9941 10.3154 22.9941H19.6904C20.209 22.9941 20.6279 23.4131 20.6279 23.9316C20.6279 24.4502 20.2061 24.8691 19.6904 24.8691ZM22.5 2.375H5.625C4.59082 2.375 3.75 3.21582 3.75 4.25H9.375C9.375 5.28418 10.2158 6.125 11.25 6.125H18.75C19.7842 6.125 20.625 5.28418 20.625 4.25H24.375C24.375 3.21582 23.5342 2.375 22.5 2.375Z" fill="#3D5AFE"/>
<path d="M5.625 26.75V4.25H3.75V26.75C3.75 27.7842 4.59082 28.625 5.625 28.625C8.10059 28.625 10.4121 27.9395 12.3896 26.75H5.625Z" fill="#536DFE"/>
<path d="M8.44043 24.8691C7.92188 24.8691 7.50293 24.4502 7.50293 23.9316C7.50293 23.4131 7.92188 22.9941 8.44043 22.9941H16.4004C17.8828 20.8701 18.75 18.2861 18.75 15.5C18.75 11.8262 17.2412 8.50684 14.8096 6.125H9.375C8.34082 6.125 7.5 5.28418 7.5 4.25H5.625V26.75H12.3896C13.2715 26.2197 14.0859 25.5869 14.8154 24.8691H8.44043Z" fill="#FFFF8D"/>
<path d="M7.50293 23.9316C7.50293 24.4502 7.92188 24.8691 8.44043 24.8691H14.8154C15.4014 24.2949 15.9316 23.668 16.4004 22.9941H8.44043C7.92188 22.9941 7.50293 23.416 7.50293 23.9316ZM12.3896 4.25C10.4121 3.06055 8.10059 2.375 5.625 2.375C4.59082 2.375 3.75 3.21582 3.75 4.25H7.5C7.5 5.28418 8.34082 6.125 9.375 6.125H14.8096C14.0801 5.41016 13.2686 4.78027 12.3896 4.25Z" fill="#536DFE"/>
</svg>
