<svg xmlns="http://www.w3.org/2000/svg" width="25" height="25" viewBox="0 0 25 25" fill="none">
  <g clip-path="url(#clip0_337_368)">
    <path d="M12.5 25C19.4036 25 25 19.4036 25 12.5C25 5.59644 19.4036 0 12.5 0C5.59644 0 0 5.59644 0 12.5C0 19.4036 5.59644 25 12.5 25Z" fill="#324A5E"/>
    <path d="M12.5475 24.9996C17.8682 24.9797 22.4046 21.6357 24.189 16.9361L15.5734 8.17568L9.3729 6.70127L6.70903 5.7959L10.3894 9.51973L5.80664 9.05928L9.98223 13.2372L6.94453 13.8891L12.7641 19.7086L9.31348 21.7655L12.5475 24.9996Z" fill="#2B3B4E"/>
    <path d="M15.6865 21.7655H9.31323L8.03857 11.5684H16.9611L15.6865 21.7655Z" fill="#FC6F58"/>
    <path d="M16.9613 11.5684H12.5V21.7655H15.6866L16.9613 11.5684Z" fill="#F1543F"/>
    <path d="M15.2777 8.67003C15.2423 8.67003 15.2064 8.66447 15.1711 8.6527L6.83775 5.87492C6.66133 5.81608 6.56597 5.62541 6.62481 5.44899C6.68364 5.27248 6.87505 5.17746 7.05073 5.23605L15.3841 8.01383C15.5605 8.07267 15.6559 8.26335 15.597 8.43976C15.55 8.58083 15.4186 8.67003 15.2777 8.67003Z" fill="#F4E3C3"/>
    <path d="M14.7511 10.2906C14.7365 10.2906 14.7219 10.2896 14.7071 10.2878L5.99679 9.15106C5.81247 9.12699 5.68249 8.95795 5.70646 8.77362C5.73063 8.58929 5.89938 8.45946 6.0839 8.48329L14.7943 9.62001C14.9786 9.64408 15.1086 9.81312 15.0846 9.99745C15.0624 10.167 14.9177 10.2906 14.7511 10.2906Z" fill="#F4E3C3"/>
    <path d="M16.9612 11.5684L18.0555 13.8891H6.94434L8.03862 11.5684H16.9612Z" fill="#D83E20"/>
    <path d="M16.9613 11.5684H12.5V13.8891H18.0556L16.9613 11.5684Z" fill="#C1321F"/>
    <path d="M12.5002 18.0561C13.2672 18.0561 13.8891 17.4342 13.8891 16.6672C13.8891 15.9001 13.2672 15.2783 12.5002 15.2783C11.7331 15.2783 11.1113 15.9001 11.1113 16.6672C11.1113 17.4342 11.7331 18.0561 12.5002 18.0561Z" fill="#C1321F"/>
    <path d="M13.8889 16.6662C13.8889 15.8991 13.2671 15.2773 12.5 15.2773V18.0551C13.2671 18.0551 13.8889 17.4333 13.8889 16.6662Z" fill="#A82116"/>
  </g>
  <defs>
    <clipPath id="clip0_337_368">
      <rect width="25" height="25" fill="white"/>
    </clipPath>
  </defs>
</svg>