<svg xmlns="http://www.w3.org/2000/svg" width="50" height="50" viewBox="0 0 50 50" fill="none">
  <g clip-path="url(#clip0_337_308)">
    <path d="M1.5625 40.5918C1.5625 42.6638 2.3856 44.6509 3.85073 46.1161C4.57619 46.8415 5.43743 47.417 6.38529 47.8096C7.33314 48.2022 8.34905 48.4043 9.375 48.4043H40.625C42.697 48.4043 44.6841 47.5812 46.1493 46.1161C47.6144 44.6509 48.4375 42.6638 48.4375 40.5918H1.5625Z" fill="#E29460"/>
    <path d="M40.625 46.8418H9.375C7.57425 46.8418 5.82878 46.2197 4.43392 45.0808C3.03906 43.942 2.08046 42.3562 1.72031 40.5918H1.5625C1.5625 42.6638 2.3856 44.6509 3.85073 46.1161C4.57619 46.8415 5.43743 47.417 6.38529 47.8096C7.33314 48.2022 8.34905 48.4043 9.375 48.4043H40.625C42.697 48.4043 44.6841 47.5812 46.1493 46.1161C47.6144 44.6509 48.4375 42.6638 48.4375 40.5918H48.2797C47.9195 42.3562 46.9609 43.942 45.5661 45.0808C44.1712 46.2197 42.4258 46.8418 40.625 46.8418Z" fill="black"/>
    <path d="M46.875 29.6543H3.125C2.2962 29.6543 1.50134 29.9835 0.915291 30.5696C0.32924 31.1556 0 31.9505 0 32.7793C0 33.6081 0.32924 34.403 0.915291 34.989C1.50134 35.5751 2.2962 35.9043 3.125 35.9043H46.875C47.7038 35.9043 48.4987 35.5751 49.0847 34.989C49.6708 34.403 50 33.6081 50 32.7793C50 31.9505 49.6708 31.1556 49.0847 30.5696C48.4987 29.9835 47.7038 29.6543 46.875 29.6543Z" fill="#EF4D4D"/>
    <path d="M46.875 34.3418H3.125C2.43373 34.3404 1.76252 34.1094 1.21671 33.6852C0.670903 33.261 0.281412 32.6676 0.109375 31.998C0.0453125 32.2512 0 32.509 0 32.7793C0 33.6081 0.32924 34.403 0.915291 34.989C1.50134 35.5751 2.2962 35.9043 3.125 35.9043H46.875C47.7038 35.9043 48.4987 35.5751 49.0847 34.989C49.6708 34.403 50 33.6081 50 32.7793C50 32.5074 49.9547 32.2496 49.8906 31.998C49.7188 32.6677 49.3294 33.2613 48.7835 33.6855C48.2377 34.1098 47.5663 34.3406 46.875 34.3418Z" fill="black"/>
    <path d="M46.875 17.1543H3.125C2.2962 17.1543 1.50134 17.4835 0.915291 18.0696C0.32924 18.6556 0 19.4505 0 20.2793C0 21.1081 0.32924 21.903 0.915291 22.489C1.50134 23.0751 2.2962 23.4043 3.125 23.4043H46.875C47.7038 23.4043 48.4987 23.0751 49.0847 22.489C49.6708 21.903 50 21.1081 50 20.2793C50 19.4505 49.6708 18.6556 49.0847 18.0696C48.4987 17.4835 47.7038 17.1543 46.875 17.1543Z" fill="#EF4D4D"/>
    <path d="M46.875 21.8418H3.125C2.43373 21.8404 1.76252 21.6094 1.21671 21.1852C0.670903 20.761 0.281412 20.1676 0.109375 19.498C0.0453125 19.7512 0 20.009 0 20.2793C0 21.1081 0.32924 21.903 0.915291 22.489C1.50134 23.0751 2.2962 23.4043 3.125 23.4043H46.875C47.7038 23.4043 48.4987 23.0751 49.0847 22.489C49.6708 21.903 50 21.1081 50 20.2793C50 20.0074 49.9547 19.7496 49.8906 19.498C49.7188 20.1677 49.3294 20.7613 48.7835 21.1855C48.2377 21.6098 47.5663 21.8406 46.875 21.8418Z" fill="black"/>
    <path d="M1.5625 37.4668H48.4375V39.0293H1.5625V37.4668Z" fill="#469FCC"/>
    <path d="M1.5625 24.9668H48.4375V28.0918H1.5625V24.9668Z" fill="#EDD87E"/>
    <path d="M19.7765 37.3564L13.6046 43.5283C13.4596 43.6735 13.2874 43.7888 13.0979 43.8674C12.9083 43.946 12.7051 43.9864 12.4999 43.9864C12.2947 43.9864 12.0915 43.946 11.9019 43.8674C11.7124 43.7888 11.5402 43.6735 11.3952 43.5283L5.22334 37.3564H4.04053L11.5062 44.8221C11.6511 44.9673 11.8233 45.0825 12.0129 45.1611C12.2024 45.2397 12.4056 45.2802 12.6108 45.2802C12.816 45.2802 13.0192 45.2397 13.2088 45.1611C13.3984 45.0825 13.5705 44.9673 13.7155 44.8221L21.1812 37.3564H19.7765Z" fill="black"/>
    <path d="M11.3955 43.5283C11.5405 43.6735 11.7127 43.7888 11.9022 43.8674C12.0918 43.946 12.295 43.9864 12.5002 43.9864C12.7054 43.9864 12.9086 43.946 13.0982 43.8674C13.2877 43.7888 13.4599 43.6735 13.6049 43.5283L19.7768 37.3564H5.22363L11.3955 43.5283ZM27.8564 37.3564L32.3549 41.8549C32.4999 42.0001 32.6721 42.1153 32.8616 42.1939C33.0512 42.2725 33.2544 42.313 33.4596 42.313C33.6648 42.313 33.868 42.2725 34.0575 42.1939C34.2471 42.1153 34.4193 42.0001 34.5643 41.8549L39.0627 37.3564H27.8564Z" fill="#EDD87E"/>
    <path d="M39.0625 37.3559L34.5641 41.8543C34.4191 41.9995 34.2469 42.1147 34.0573 42.1933C33.8678 42.272 33.6646 42.3124 33.4594 42.3124C33.2542 42.3124 33.051 42.272 32.8614 42.1933C32.6719 42.1147 32.4997 41.9995 32.3547 41.8543L27.8562 37.3559H26.6734L32.4656 43.148C32.6106 43.2933 32.7828 43.4085 32.9724 43.4871C33.1619 43.5657 33.3651 43.6062 33.5703 43.6062C33.7755 43.6062 33.9787 43.5657 34.1683 43.4871C34.3578 43.4085 34.53 43.2933 34.675 43.148L40.4672 37.3559H39.0625ZM45.3125 18.7168C42.5 18.7168 40.625 15.5918 40.625 15.5918C40.625 15.5918 37.5 18.7168 32.8125 18.7168C28.125 18.7168 25 15.5918 25 15.5918C25 15.5918 23.125 18.7168 20.3125 18.7168C17.5 18.7168 15.625 15.5918 15.625 15.5918C15.625 15.5918 12.5 18.7168 7.8125 18.7168C3.125 18.7168 0 15.5918 0 15.5918V17.1543C0 17.1543 3.125 20.2793 7.8125 20.2793C12.5 20.2793 15.625 17.1543 15.625 17.1543C15.625 17.1543 17.5 20.2793 20.3125 20.2793C23.125 20.2793 25 17.1543 25 17.1543C25 17.1543 28.125 20.2793 32.8125 20.2793C37.5 20.2793 40.625 17.1543 40.625 17.1543C40.625 17.1543 42.5 20.2793 45.3125 20.2793C48.125 20.2793 50 17.1543 50 17.1543V15.5918C50 15.5918 48.125 18.7168 45.3125 18.7168Z" fill="black"/>
    <path d="M25.0063 1.5293C12.5063 1.5293 1.56885 6.2168 1.56885 12.4668H48.4438C48.4438 6.2168 37.5063 1.5293 25.0063 1.5293Z" fill="#E29460"/>
    <path d="M34.3813 6.99805C34.3813 7.20525 34.4637 7.40396 34.6102 7.55047C34.7567 7.69699 34.9554 7.7793 35.1626 7.7793C35.3698 7.7793 35.5685 7.69699 35.715 7.55047C35.8615 7.40396 35.9438 7.20525 35.9438 6.99805C35.9438 6.79085 35.8615 6.59213 35.715 6.44562C35.5685 6.29911 35.3698 6.2168 35.1626 6.2168C34.9554 6.2168 34.7567 6.29911 34.6102 6.44562C34.4637 6.59213 34.3813 6.79085 34.3813 6.99805Z" fill="black"/>
    <path d="M28.1313 5.43555C28.1313 5.64275 28.2137 5.84146 28.3602 5.98797C28.5067 6.13449 28.7054 6.2168 28.9126 6.2168C29.1198 6.2168 29.3185 6.13449 29.465 5.98797C29.6115 5.84146 29.6938 5.64275 29.6938 5.43555C29.6938 5.22835 29.6115 5.02963 29.465 4.88312C29.3185 4.73661 29.1198 4.6543 28.9126 4.6543C28.7054 4.6543 28.5067 4.73661 28.3602 4.88312C28.2137 5.02963 28.1313 5.22835 28.1313 5.43555Z" fill="black"/>
    <path d="M20.3188 8.56055C20.3188 8.76775 20.4012 8.96646 20.5477 9.11297C20.6942 9.25949 20.8929 9.3418 21.1001 9.3418C21.3073 9.3418 21.506 9.25949 21.6525 9.11297C21.799 8.96646 21.8813 8.76775 21.8813 8.56055C21.8813 8.35335 21.799 8.15463 21.6525 8.00812C21.506 7.86161 21.3073 7.7793 21.1001 7.7793C20.8929 7.7793 20.6942 7.86161 20.5477 8.00812C20.4012 8.15463 20.3188 8.35335 20.3188 8.56055Z" fill="black"/>
    <path d="M21.8813 5.43555C21.8813 5.64275 21.9637 5.84146 22.1102 5.98797C22.2567 6.13449 22.4554 6.2168 22.6626 6.2168C22.8698 6.2168 23.0685 6.13449 23.215 5.98797C23.3615 5.84146 23.4438 5.64275 23.4438 5.43555C23.4438 5.22835 23.3615 5.02963 23.215 4.88312C23.0685 4.73661 22.8698 4.6543 22.6626 4.6543C22.4554 4.6543 22.2567 4.73661 22.1102 4.88312C21.9637 5.02963 21.8813 5.22835 21.8813 5.43555Z" fill="black"/>
    <path d="M12.5063 5.43555C12.5063 5.64275 12.5887 5.84146 12.7352 5.98797C12.8817 6.13449 13.0804 6.2168 13.2876 6.2168C13.4948 6.2168 13.6935 6.13449 13.84 5.98797C13.9865 5.84146 14.0688 5.64275 14.0688 5.43555C14.0688 5.22835 13.9865 5.02963 13.84 4.88312C13.6935 4.73661 13.4948 4.6543 13.2876 4.6543C13.0804 4.6543 12.8817 4.73661 12.7352 4.88312C12.5887 5.02963 12.5063 5.22835 12.5063 5.43555Z" fill="black"/>
    <path d="M42.1875 10.9043C37.5 10.9043 34.375 14.0293 34.375 14.0293C34.375 14.0293 32.5 10.9043 29.6875 10.9043C26.875 10.9043 25 14.0293 25 14.0293C25 14.0293 21.875 10.9043 17.1875 10.9043C12.5 10.9043 9.375 14.0293 9.375 14.0293C9.375 14.0293 7.5 10.9043 4.6875 10.9043C1.875 10.9043 0 14.0293 0 14.0293V15.5918C0 15.5918 3.125 18.7168 7.8125 18.7168C12.5 18.7168 15.625 15.5918 15.625 15.5918C15.625 15.5918 17.5 18.7168 20.3125 18.7168C23.125 18.7168 25 15.5918 25 15.5918C25 15.5918 28.125 18.7168 32.8125 18.7168C37.5 18.7168 40.625 15.5918 40.625 15.5918C40.625 15.5918 42.5 18.7168 45.3125 18.7168C48.125 18.7168 50 15.5918 50 15.5918V14.0293C50 14.0293 46.875 10.9043 42.1875 10.9043Z" fill="#3AAD73"/>
  </g>
  <defs>
    <clipPath id="clip0_337_308">
      <rect width="50" height="50" fill="white"/>
    </clipPath>
  </defs>
</svg>