<svg xmlns="http://www.w3.org/2000/svg" width="40" height="40" viewBox="0 0 40 40" fill="none">
  <path d="M36.6963 18.7356C36.6963 18.7356 36.3137 19.2044 35.5569 19.9613C34.8 20.7181 20.8838 34.6338 20.8838 34.6338C20.6394 34.8781 20.32 35 20 35C19.68 35 19.3606 34.8781 19.1163 34.6338C19.1163 34.6338 5.2 20.7175 4.44313 19.9606C3.68625 19.2038 3.30375 18.735 3.30375 18.735C2.02812 17.2156 1.25 15.265 1.25 13.125C1.25 8.2925 5.1675 4.375 10 4.375C12.4163 4.375 14.6038 5.35375 16.1869 6.93812L16.1925 6.9325L19.1163 9.85563C19.6044 10.3438 20.3956 10.3438 20.8838 9.85563L23.8075 6.9325L23.8131 6.93812C25.3963 5.35375 27.5837 4.375 30 4.375C34.8325 4.375 38.75 8.2925 38.75 13.125C38.75 15.265 37.9719 17.2156 36.6963 18.7356Z" fill="#F76D57"/>
  <path d="M36.6963 18.7356C36.6963 18.7356 36.3137 19.2044 35.5569 19.9613C34.8 20.7181 20.8838 34.6338 20.8838 34.6338C20.6394 34.8781 20.32 35 20 35C19.68 35 19.3606 34.8781 19.1163 34.6338C19.1163 34.6338 5.2 20.7175 4.44313 19.9606C3.68625 19.2038 3.30375 18.735 3.30375 18.735C2.02812 17.2156 1.25 15.265 1.25 13.125C1.25 8.2925 5.1675 4.375 10 4.375C12.4163 4.375 14.6038 5.35375 16.1869 6.93812L16.1925 6.9325L19.1163 9.85563C19.6044 10.3438 20.3956 10.3438 20.8838 9.85563L23.8075 6.9325L23.8131 6.93812C25.3963 5.35375 27.5837 4.375 30 4.375C34.8325 4.375 38.75 8.2925 38.75 13.125C38.75 15.265 37.9719 17.2156 36.6963 18.7356Z" fill="#F76D57"/>
  <path d="M30 3.125C27.2388 3.125 24.7388 4.24438 22.9294 6.05438L20.4425 8.53C20.1981 8.77437 19.8031 8.77437 19.5588 8.53C19.5588 8.53 17.0769 6.04875 17.0719 6.05438C15.2613 4.24438 12.7613 3.125 10 3.125C4.47688 3.125 0 7.60188 0 13.125C0 15.2113 0.64 17.1475 1.73312 18.75C1.73312 18.75 2.19187 19.4775 2.73438 20.0194C3.27688 20.5612 18.2325 35.5175 18.2325 35.5175C18.7206 36.0056 19.3606 36.25 20 36.25C20.6394 36.25 21.2794 36.0056 21.7675 35.5175C21.7675 35.5175 36.7238 20.5612 37.2656 20.0194C37.8075 19.4775 38.2669 18.75 38.2669 18.75C39.36 17.1475 40 15.2113 40 13.125C40 7.60188 35.5231 3.125 30 3.125ZM36.6963 18.7356C36.6963 18.7356 36.3137 19.2044 35.5569 19.9613C34.8 20.7181 20.8838 34.6338 20.8838 34.6338C20.6394 34.8781 20.32 35 20 35C19.68 35 19.3606 34.8781 19.1163 34.6338C19.1163 34.6338 5.2 20.7175 4.44313 19.9606C3.68625 19.2038 3.30375 18.735 3.30375 18.735C2.02812 17.2156 1.25 15.265 1.25 13.125C1.25 8.2925 5.1675 4.375 10 4.375C12.4163 4.375 14.6038 5.35375 16.1869 6.93812L16.1925 6.9325L19.1163 9.85563C19.6044 10.3438 20.3956 10.3438 20.8838 9.85563L23.8075 6.9325L23.8131 6.93812C25.3963 5.35375 27.5837 4.375 30 4.375C34.8325 4.375 38.75 8.2925 38.75 13.125C38.75 15.265 37.9719 17.2156 36.6963 18.7356Z" fill="#394240"/>
  <path d="M30 6.875C29.6544 6.875 29.375 7.15438 29.375 7.5C29.375 7.84562 29.6544 8.125 30 8.125C32.7613 8.125 35 10.3637 35 13.125C35 13.4706 35.2794 13.75 35.625 13.75C35.9706 13.75 36.25 13.4706 36.25 13.125C36.25 9.67375 33.4513 6.875 30 6.875Z" fill="#394240"/>
</svg>