<svg xmlns="http://www.w3.org/2000/svg" width="25" height="25" viewBox="0 0 25 25" fill="none">
  <path d="M0 5.69141V22.1968C0 22.4708 0.222119 22.6929 0.496094 22.6929H24.5039C24.7779 22.6929 25 22.4708 25 22.1968V5.69141H0Z" fill="#FFF5F5"/>
  <path d="M23.6419 5.69141V22.1969C23.6419 22.471 23.4201 22.6928 23.146 22.6928H24.5041C24.7778 22.6928 25.0001 22.471 25.0001 22.1969V5.69141H23.6419Z" fill="#EFE2DD"/>
  <path d="M25 3.29956V6.06162H0V3.29956C0 2.75176 0.444189 2.30762 0.991943 2.30762H24.0081C24.5558 2.30762 25 2.75181 25 3.29956Z" fill="#FFB54E"/>
  <path d="M25 3.29956V6.06162H23.6418V3.29956C23.6418 2.75176 23.1977 2.30762 22.6499 2.30762H24.0081C24.5558 2.30762 25 2.75181 25 3.29956Z" fill="#FF9A1B"/>
  <path d="M17.4005 13.0977C17.0862 13.0783 16.8352 12.5602 16.6838 11.8862C16.5564 11.3173 16.4995 10.6376 16.5355 10.0511C16.6147 8.76932 17.1073 8.42191 17.6869 8.45751C18.2498 8.49237 18.6873 8.87674 18.6388 10.0754C18.6378 10.1098 18.6358 10.1446 18.6335 10.1805C18.5543 11.4616 17.9801 13.1332 17.4005 13.0977Z" fill="#8EC737"/>
  <path d="M17.4008 13.0975C17.0865 13.0781 16.8354 12.5601 16.6841 11.886C16.8003 11.7008 16.9509 11.5079 17.1353 11.308C17.5457 10.8624 18.0941 10.4145 18.6391 10.0752C18.6381 10.1096 18.6361 10.1444 18.6338 10.1803C18.5545 11.4614 17.9803 13.1331 17.4008 13.0975Z" fill="#83B832"/>
  <path d="M19.229 10.5536C18.1102 11.1832 16.8559 12.4289 17.1405 12.9348C17.4251 13.4406 19.1409 13.015 20.2597 12.3854C21.3785 11.7559 21.4767 11.1607 21.192 10.6549C20.9074 10.1491 20.3478 9.92411 19.229 10.5536Z" fill="#BDEB73"/>
  <path d="M20.26 12.3853C19.1412 13.0145 17.4257 13.4403 17.1406 12.9343C17.074 12.8166 17.0916 12.6588 17.1711 12.4779C17.8263 12.5404 18.9981 12.1834 19.8355 11.7124C20.7175 11.2158 20.9651 10.7411 20.8909 10.3145C21.016 10.3988 21.1147 10.5162 21.1925 10.6544C21.4768 11.1606 21.3787 11.7554 20.26 12.3853Z" fill="#9AD63B"/>
  <path d="M7.59934 13.0977C7.91364 13.0783 8.16467 12.5603 8.31603 11.8863C8.44343 11.3174 8.50036 10.6376 8.46433 10.0512C8.38518 8.76937 7.89255 8.42195 7.31301 8.4575C6.75012 8.49236 6.31257 8.87674 6.3611 10.0754C6.36208 10.1097 6.36408 10.1446 6.36633 10.1805C6.44558 11.4617 7.01979 13.1333 7.59934 13.0977Z" fill="#8EC737"/>
  <path d="M8.4646 10.0512C8.50064 10.6376 8.4437 11.3174 8.31631 11.8863C8.16494 12.5603 7.91387 13.0783 7.59961 13.0977C7.51436 13.1029 7.42837 13.0708 7.34497 13.0087C7.44829 12.8012 7.53535 12.5323 7.60273 12.2328C7.73013 11.6639 7.78706 10.9842 7.75103 10.3977C7.67329 9.1366 7.19482 8.77996 6.62793 8.80291C6.8001 8.57215 7.04253 8.47425 7.31328 8.4575C7.89282 8.42195 8.38545 8.76937 8.4646 10.0512Z" fill="#83B832"/>
  <path d="M7.59961 13.0975C7.91392 13.0781 8.16494 12.5601 8.31631 11.886C8.20005 11.7008 8.04946 11.5079 7.86514 11.308C7.45474 10.8624 6.9063 10.4145 6.36133 10.0752C6.3623 10.1096 6.36431 10.1444 6.36655 10.1803C6.44585 11.4615 7.02007 13.1331 7.59961 13.0975Z" fill="#83B832"/>
  <path d="M5.77104 10.5537C6.88984 11.1832 8.14409 12.4289 7.85947 12.9348C7.57485 13.4406 5.85908 13.015 4.74028 12.3854C3.62148 11.7559 3.52334 11.1607 3.80796 10.6549C4.09258 10.1491 4.65225 9.92406 5.77104 10.5537Z" fill="#BDEB73"/>
  <path d="M7.85938 12.9347C7.7876 13.062 7.62534 13.1304 7.40439 13.1511C7.16211 12.5539 6.20669 11.6874 5.33394 11.1962C4.53818 10.7487 4.02593 10.7331 3.69385 10.9434C3.71553 10.8442 3.75498 10.748 3.80752 10.6548C4.09214 10.1491 4.6522 9.92412 5.77056 10.5537C6.8897 11.1833 8.14404 12.429 7.85938 12.9347Z" fill="#9AD63B"/>
  <path d="M17.4005 15.3424C17.0862 15.3618 16.8352 15.8798 16.6838 16.5538C16.5564 17.1227 16.4995 17.8025 16.5355 18.3889C16.6147 19.6707 17.1073 20.0181 17.6869 19.9825C18.2498 19.9477 18.6873 19.5633 18.6388 18.3647C18.6378 18.3303 18.6358 18.2955 18.6335 18.2595C18.5543 16.9784 17.9801 15.3068 17.4005 15.3424Z" fill="#8EC737"/>
  <path d="M17.4008 15.3424C17.0865 15.3618 16.8354 15.8798 16.6841 16.5538C16.8003 16.7391 16.9509 16.932 17.1353 17.1319C17.5457 17.5775 18.0941 18.0254 18.6391 18.3647C18.6381 18.3303 18.6361 18.2955 18.6338 18.2595C18.5545 16.9784 17.9803 15.3068 17.4008 15.3424Z" fill="#83B832"/>
  <path d="M19.229 17.8869C18.1102 17.2574 16.8559 16.0117 17.1405 15.5058C17.4251 14.9999 19.1409 15.4256 20.2597 16.0551C21.3785 16.6847 21.4767 17.2798 21.192 17.7856C20.9074 18.2914 20.3478 18.5164 19.229 17.8869Z" fill="#BDEB73"/>
  <path d="M20.26 16.0549C19.1412 15.4257 17.4257 14.9998 17.1406 15.5059C17.074 15.6235 17.0916 15.7813 17.1711 15.9623C17.8263 15.8998 18.9981 16.2568 19.8355 16.7278C20.7175 17.2244 20.9651 17.6991 20.8909 18.1257C21.016 18.0414 21.1147 17.924 21.1925 17.7857C21.4768 17.2796 21.3787 16.6848 20.26 16.0549Z" fill="#9AD63B"/>
  <path d="M7.59934 15.3424C7.91364 15.3618 8.16467 15.8798 8.31603 16.5538C8.44343 17.1227 8.50036 17.8025 8.46433 18.3889C8.38518 19.6707 7.89255 20.0181 7.31301 19.9826C6.75012 19.9477 6.31257 19.5634 6.3611 18.3647C6.36208 18.3303 6.36408 18.2955 6.36633 18.2596C6.44558 16.9784 7.01979 15.3068 7.59934 15.3424Z" fill="#8EC737"/>
  <path d="M8.4646 18.3889C8.50064 17.8025 8.4437 17.1227 8.31631 16.5538C8.16494 15.8798 7.91387 15.3618 7.59961 15.3423C7.51436 15.3372 7.42837 15.3692 7.34497 15.4314C7.44829 15.6389 7.53535 15.9078 7.60273 16.2073C7.73013 16.7762 7.78706 17.4559 7.75103 18.0424C7.67329 19.3035 7.19482 19.6601 6.62793 19.6372C6.8001 19.8679 7.04253 19.9658 7.31328 19.9826C7.89282 20.0181 8.38545 19.6708 8.4646 18.3889Z" fill="#83B832"/>
  <path d="M7.59961 15.3424C7.91392 15.3618 8.16494 15.8798 8.31631 16.5538C8.20005 16.7391 8.04946 16.932 7.86514 17.1319C7.45474 17.5775 6.9063 18.0254 6.36133 18.3647C6.3623 18.3303 6.36431 18.2955 6.36655 18.2595C6.44585 16.9784 7.02007 15.3068 7.59961 15.3424Z" fill="#83B832"/>
  <path d="M5.77104 17.8869C6.88984 17.2573 8.14409 16.0116 7.85947 15.5058C7.57485 15 5.85908 15.4256 4.74028 16.0551C3.62148 16.6846 3.52334 17.2798 3.80796 17.7856C4.09258 18.2915 4.65225 18.5165 5.77104 17.8869Z" fill="#BDEB73"/>
  <path d="M7.85938 15.5055C7.7876 15.3782 7.62534 15.3098 7.40439 15.2891C7.16211 15.8863 6.20669 16.7528 5.33394 17.2439C4.53818 17.6915 4.02593 17.7071 3.69385 17.4968C3.71553 17.5959 3.75498 17.6921 3.80752 17.7854C4.09214 18.2911 4.6522 18.516 5.77056 17.8865C6.8897 17.2568 8.14404 16.0112 7.85938 15.5055Z" fill="#9AD63B"/>
  <path d="M22.3269 15.9396H16.6881C16.4285 15.9396 16.2183 15.7294 16.2183 15.4703V12.5H22.3817C22.8068 12.5 23.013 13.0201 22.7037 13.3114L21.6835 14.2722L22.6388 15.1187C22.9622 15.4054 22.7595 15.9396 22.3269 15.9396Z" fill="#ED6264"/>
  <path d="M18.759 14.2198C18.759 14.8159 18.675 15.3929 18.5186 15.9396H16.6881C16.4285 15.9396 16.2183 15.7294 16.2183 15.4703V12.5H18.5186C18.675 13.0468 18.759 13.6237 18.759 14.2198Z" fill="#E84649"/>
  <path d="M8.78185 12.5V15.4703C8.78185 15.7293 8.57159 15.9396 8.31202 15.9396H2.6732C2.24059 15.9396 2.0379 15.4054 2.36134 15.1187L3.31656 14.2721L2.29645 13.3113C1.98707 13.0201 2.19332 12.5 2.61837 12.5H8.78185Z" fill="#ED6264"/>
  <path d="M6.48164 12.5H8.78193V15.4703C8.78193 15.7293 8.57168 15.9396 8.31211 15.9396H6.48164C6.3252 15.3929 6.24121 14.8159 6.24121 14.2198C6.24121 13.6237 6.3252 13.0468 6.48164 12.5Z" fill="#E84649"/>
  <path d="M12.5001 19.7747C15.568 19.7747 18.055 17.2877 18.055 14.2199C18.055 11.152 15.568 8.66504 12.5001 8.66504C9.4323 8.66504 6.94531 11.152 6.94531 14.2199C6.94531 17.2877 9.4323 19.7747 12.5001 19.7747Z" fill="#FFCE8B"/>
  <path d="M12.5002 18.9946C15.1375 18.9946 17.2754 16.8567 17.2754 14.2195C17.2754 11.5822 15.1375 9.44434 12.5002 9.44434C9.863 9.44434 7.7251 11.5822 7.7251 14.2195C7.7251 16.8567 9.863 18.9946 12.5002 18.9946Z" fill="#FFB54E"/>
  <path d="M12.5004 18.3445C14.7785 18.3445 16.6253 16.4977 16.6253 14.2196C16.6253 11.9415 14.7785 10.0947 12.5004 10.0947C10.2223 10.0947 8.37549 11.9415 8.37549 14.2196C8.37549 16.4977 10.2223 18.3445 12.5004 18.3445Z" fill="#65BAFC"/>
  <path d="M16.625 14.2204C16.625 16.4987 14.7786 18.345 12.5003 18.345C12.3312 18.345 12.1645 18.3348 12.001 18.3148C14.0438 18.0687 15.6263 16.3296 15.6263 14.2204C15.6263 12.1111 14.0438 10.3721 12.001 10.1259C12.1645 10.1059 12.3312 10.0957 12.5003 10.0957C14.7786 10.0957 16.625 11.942 16.625 14.2204Z" fill="#2EA8FC"/>
  <path d="M14.6778 13.8519L13.7576 14.7489L13.9745 16.0155C14.007 16.205 13.8082 16.3499 13.6377 16.2603L12.5002 15.662L11.3627 16.2603C11.1922 16.35 10.9934 16.2051 11.0259 16.0156L11.1281 15.4182L11.2428 14.7489L10.3227 13.8519C10.1852 13.7177 10.2609 13.4836 10.4513 13.4557L11.7231 13.2709L12.2921 12.1185C12.3771 11.9462 12.6233 11.9462 12.7083 12.1185L13.2773 13.2709L13.8128 13.3489L14.549 13.4557C14.7395 13.4836 14.8153 13.7177 14.6778 13.8519Z" fill="#FFCE8B"/>
  <path d="M14.6778 13.8517L13.7577 14.7486L13.9746 16.0152C14.0071 16.2047 13.8083 16.3497 13.6378 16.26L12.5003 15.6618L11.3628 16.2601C11.1923 16.3497 10.9935 16.2048 11.026 16.0153L11.1282 15.4179C12.8347 14.9456 13.5315 13.9882 13.8129 13.3486L14.5492 13.4555C14.7396 13.4833 14.8153 13.7174 14.6778 13.8517Z" fill="#FFB54E"/>
  <path d="M2.56182 4.58828C2.35342 4.58828 2.18457 4.41939 2.18457 4.21104C2.18457 4.00264 2.35347 3.83301 2.56182 3.83301C2.77017 3.83301 2.93906 4.00117 2.93906 4.20952V4.21104C2.93906 4.41939 2.77017 4.58828 2.56182 4.58828Z" fill="#FFF5F5"/>
  <path d="M3.97002 4.58828C3.76162 4.58828 3.59277 4.41939 3.59277 4.21104C3.59277 4.00264 3.76167 3.83301 3.97002 3.83301C4.17842 3.83301 4.34727 4.00117 4.34727 4.20952V4.21104C4.34727 4.41939 4.17837 4.58828 3.97002 4.58828Z" fill="#FFF5F5"/>
  <path d="M5.37871 4.58828C5.17031 4.58828 5.00146 4.41939 5.00146 4.21104C5.00146 4.00264 5.17036 3.83301 5.37871 3.83301C5.58711 3.83301 5.75596 4.00117 5.75596 4.20952V4.21104C5.75596 4.41939 5.58711 4.58828 5.37871 4.58828Z" fill="#FFF5F5"/>
  <path d="M22.4376 4.58848H11.4993C11.2909 4.58848 11.1221 4.41958 11.1221 4.21123C11.1221 4.00283 11.291 3.83398 11.4993 3.83398H22.4376C22.646 3.83398 22.8149 4.00288 22.8149 4.21123C22.8149 4.41958 22.646 4.58848 22.4376 4.58848Z" fill="#FF9A1B"/>
</svg>